<svg width="128" height="128" viewBox="0 0 128 128" fill="none" xmlns="http://www.w3.org/2000/svg">
    <rect x="1" y="1" width="126" height="126" rx="10" fill="#0F172A" />
    <path
        d="M15 89.4853V38.8949H22.6857L51.0265 80.4172L49.5854 37.9403H56.3104L57.2711 89.4853H49.5854L20.7642 46.5312L22.6857 89.4853H15Z"
        fill="#FEFEFE" />
    <path fill-rule="evenodd" clip-rule="evenodd"
        d="M68.8863 36.5085L69.847 91.3943H86.6594V72.7809H90.0218C104.432 72.7809 115 66.0991 115 54.1674C115 40.5056 108.275 35.5539 90.9826 36.0312L68.8863 36.5085ZM85.6983 47.4856L86.1787 61.3264H87.6197C95.7857 61.3264 97.2268 57.7781 97.2268 54.1674C97.2268 49.872 95.7857 47.4856 87.6197 47.4856H85.6983Z"
        fill="#FF5CB2" />
</svg>