<svg width="166" height="31" viewBox="0 0 166 31" fill="none" xmlns="http://www.w3.org/2000/svg">
<path fill-rule="evenodd" clip-rule="evenodd" d="M4.1438 30.3826C3.60143 30.3826 3.08427 30.2746 2.61264 30.079C2.45786 30.0149 2.30797 29.9412 2.16371 29.8589C2.01786 29.7756 1.87777 29.6835 1.74415 29.5831C1.99002 29.1513 2.52477 28.96 2.9957 29.1553C3.34803 29.3014 3.73518 29.3826 4.1438 29.3826H6.59692C7.1492 29.3826 7.59692 29.8303 7.59692 30.3826H4.1438ZM17.4094 30.3826C17.4094 29.8303 16.9617 29.3826 16.4094 29.3826H11.5032C10.9509 29.3826 10.5032 29.8303 10.5032 30.3826H17.4094ZM27.2219 30.3826C27.2219 29.8303 26.7742 29.3826 26.2219 29.3826H21.3157C20.7634 29.3826 20.3157 29.8303 20.3157 30.3826H27.2219ZM37.0344 30.3826C37.0344 29.8303 36.5867 29.3826 36.0344 29.3826H31.1282C30.5759 29.3826 30.1282 29.8303 30.1282 30.3826H37.0344ZM46.8469 30.3826C46.8469 29.8303 46.3992 29.3826 45.8469 29.3826H40.9407C40.3884 29.3826 39.9407 29.8303 39.9407 30.3826H46.8469ZM56.6594 30.3826C56.6594 29.8303 56.2117 29.3826 55.6594 29.3826H50.7532C50.2009 29.3826 49.7532 29.8303 49.7532 30.3826H56.6594ZM66.4719 30.3826C66.4719 29.8303 66.0242 29.3826 65.4719 29.3826H60.5657C60.0134 29.3826 59.5657 29.8303 59.5657 30.3826H66.4719ZM76.2844 30.3826C76.2844 29.8303 75.8367 29.3826 75.2844 29.3826H70.3782C69.8259 29.3826 69.3782 29.8303 69.3782 30.3826H76.2844ZM86.0969 30.3826C86.0969 29.8303 85.6492 29.3826 85.0969 29.3826H80.1907C79.6384 29.3826 79.1907 29.8303 79.1907 30.3826H86.0969ZM95.9094 30.3826C95.9094 29.8303 95.4617 29.3826 94.9094 29.3826H90.0032C89.4509 29.3826 89.0032 29.8303 89.0032 30.3826H95.9094ZM105.722 30.3826C105.722 29.8303 105.274 29.3826 104.722 29.3826H99.8157C99.2634 29.3826 98.8157 29.8303 98.8157 30.3826H105.722ZM115.534 30.3826C115.534 29.8303 115.087 29.3826 114.534 29.3826H109.628C109.076 29.3826 108.628 29.8303 108.628 30.3826H115.534ZM125.347 30.3826C125.347 29.8303 124.899 29.3826 124.347 29.3826H119.441C118.888 29.3826 118.441 29.8303 118.441 30.3826H125.347ZM135.159 30.3826C135.159 29.8303 134.712 29.3826 134.159 29.3826H129.253C128.701 29.3826 128.253 29.8303 128.253 30.3826H135.159ZM144.972 30.3826C144.972 29.8303 144.524 29.3826 143.972 29.3826H139.066C138.513 29.3826 138.066 29.8303 138.066 30.3826H144.972ZM154.784 30.3826C154.784 29.8303 154.337 29.3826 153.784 29.3826H148.878C148.326 29.3826 147.878 29.8303 147.878 30.3826H154.784ZM163.543 29.5831C163.298 29.1513 162.763 28.96 162.292 29.1553C161.94 29.3014 161.552 29.3826 161.144 29.3826H158.691C158.138 29.3826 157.691 29.8303 157.691 30.3826H161.144C161.686 30.3826 162.203 30.2746 162.675 30.079C162.83 30.0149 162.98 29.9412 163.124 29.8589C163.27 29.7756 163.41 29.6835 163.543 29.5831ZM165.144 22.6326C164.592 22.6326 164.144 23.0803 164.144 23.6326V26.3826C164.144 26.7912 164.063 27.1783 163.917 27.5307C163.721 28.0016 163.913 28.5363 164.344 28.7822C164.445 28.6486 164.537 28.5085 164.62 28.3627C164.702 28.2184 164.776 28.0685 164.84 27.9137C165.036 27.4421 165.144 26.9249 165.144 26.3826V22.6326ZM165.144 11.6326C164.592 11.6326 164.144 12.0803 164.144 12.6326V18.1326C164.144 18.6849 164.592 19.1326 165.144 19.1326V11.6326ZM164.344 1.98293C163.913 2.2288 163.721 2.76355 163.917 3.23447C164.063 3.58681 164.144 3.97395 164.144 4.38257V7.13257C164.144 7.68485 164.592 8.13257 165.144 8.13257V4.38257C165.144 3.8402 165.036 3.32305 164.84 2.85142C164.776 2.69663 164.702 2.54675 164.62 2.40248C164.537 2.25664 164.445 2.11654 164.344 1.98293ZM157.691 0.382568C157.691 0.934853 158.138 1.38257 158.691 1.38257H161.144C161.552 1.38257 161.94 1.46371 162.292 1.60982C162.763 1.8051 163.298 1.61386 163.543 1.18201C163.41 1.08168 163.27 0.989507 163.124 0.906255C162.98 0.823909 162.83 0.75028 162.675 0.686093C162.203 0.490514 161.686 0.382568 161.144 0.382568H157.691ZM147.878 0.382568C147.878 0.934853 148.326 1.38257 148.878 1.38257H153.784C154.337 1.38257 154.784 0.934853 154.784 0.382568H147.878ZM138.066 0.382568C138.066 0.934853 138.513 1.38257 139.066 1.38257H143.972C144.524 1.38257 144.972 0.934853 144.972 0.382568H138.066ZM128.253 0.382568C128.253 0.934853 128.701 1.38257 129.253 1.38257H134.159C134.712 1.38257 135.159 0.934853 135.159 0.382568H128.253ZM118.441 0.382568C118.441 0.934853 118.888 1.38257 119.441 1.38257H124.347C124.899 1.38257 125.347 0.934853 125.347 0.382568H118.441ZM108.628 0.382568C108.628 0.934853 109.076 1.38257 109.628 1.38257H114.534C115.087 1.38257 115.534 0.934853 115.534 0.382568H108.628ZM98.8157 0.382568C98.8157 0.934853 99.2634 1.38257 99.8157 1.38257H104.722C105.274 1.38257 105.722 0.934853 105.722 0.382568H98.8157ZM89.0032 0.382568C89.0032 0.934853 89.4509 1.38257 90.0032 1.38257H94.9094C95.4617 1.38257 95.9094 0.934853 95.9094 0.382568H89.0032ZM79.1907 0.382568C79.1907 0.934853 79.6384 1.38257 80.1907 1.38257H85.0969C85.6492 1.38257 86.0969 0.934853 86.0969 0.382568H79.1907ZM69.3782 0.382568C69.3782 0.934853 69.8259 1.38257 70.3782 1.38257H75.2844C75.8367 1.38257 76.2844 0.934853 76.2844 0.382568H69.3782ZM59.5657 0.382568C59.5657 0.934853 60.0134 1.38257 60.5657 1.38257H65.4719C66.0242 1.38257 66.4719 0.934853 66.4719 0.382568H59.5657ZM49.7532 0.382568C49.7532 0.934853 50.2009 1.38257 50.7532 1.38257H55.6594C56.2117 1.38257 56.6594 0.934853 56.6594 0.382568H49.7532ZM39.9407 0.382568C39.9407 0.934853 40.3884 1.38257 40.9407 1.38257H45.8469C46.3992 1.38257 46.8469 0.934853 46.8469 0.382568H39.9407ZM30.1282 0.382568C30.1282 0.934853 30.5759 1.38257 31.1282 1.38257H36.0344C36.5867 1.38257 37.0344 0.934853 37.0344 0.382568H30.1282ZM20.3157 0.382568C20.3157 0.934853 20.7634 1.38257 21.3157 1.38257H26.2219C26.7742 1.38257 27.2219 0.934853 27.2219 0.382568H20.3157ZM10.5032 0.382568C10.5032 0.934853 10.9509 1.38257 11.5032 1.38257H16.4094C16.9617 1.38257 17.4094 0.934853 17.4094 0.382568H10.5032ZM7.59692 0.382568C7.59692 0.934853 7.14921 1.38257 6.59692 1.38257H4.1438C3.73518 1.38257 3.34804 1.46371 2.9957 1.60982C2.52478 1.8051 1.99002 1.61385 1.74416 1.18201C1.87777 1.08167 2.01787 0.989506 2.16371 0.906255C2.30797 0.823906 2.45786 0.750279 2.61265 0.68609C3.08428 0.490513 3.60143 0.382568 4.1438 0.382568H7.59692ZM0.143799 8.13257C0.696084 8.13257 1.1438 7.68485 1.1438 7.13257V4.38257C1.1438 3.97395 1.22494 3.58681 1.37105 3.23447C1.56633 2.76355 1.37508 2.22879 0.943238 1.98292C0.842902 2.11654 0.750737 2.25663 0.667486 2.40248C0.585137 2.54674 0.511509 2.69663 0.447321 2.85142C0.251743 3.32305 0.143799 3.8402 0.143799 4.38257V8.13257ZM0.143799 19.1326C0.696084 19.1326 1.1438 18.6849 1.1438 18.1326V12.6326C1.1438 12.0803 0.696084 11.6326 0.143799 11.6326V19.1326ZM0.94324 28.7822C1.37508 28.5363 1.56633 28.0016 1.37105 27.5307C1.22494 27.1783 1.1438 26.7912 1.1438 26.3826V23.6326C1.1438 23.0803 0.696084 22.6326 0.143799 22.6326V26.3826C0.143799 26.9249 0.251743 27.4421 0.44732 27.9137C0.511508 28.0685 0.585137 28.2184 0.667485 28.3627C0.750736 28.5085 0.842904 28.6486 0.94324 28.7822Z" fill="#000013"/>
<path d="M45.3121 19.8126C45.2187 19.8126 45.1394 19.7799 45.0741 19.7146C45.0087 19.6493 44.9761 19.5699 44.9761 19.4766V10.3626C44.9761 10.2599 45.0041 10.1759 45.0601 10.1106C45.1254 10.0453 45.2094 10.0126 45.3121 10.0126H49.3721C50.4641 10.0126 51.2761 10.2553 51.8081 10.7406C52.3494 11.2166 52.6201 11.8699 52.6201 12.7006C52.6201 13.1859 52.4987 13.6013 52.2561 13.9466C52.0227 14.2826 51.7474 14.5253 51.4301 14.6746C51.8221 14.8519 52.1487 15.1413 52.4101 15.5426C52.6807 15.9439 52.8161 16.4013 52.8161 16.9146C52.8161 17.7826 52.5221 18.4826 51.9341 19.0146C51.3554 19.5466 50.5387 19.8126 49.4841 19.8126H45.3121ZM49.1201 14.0306C49.6054 14.0306 49.9741 13.9139 50.2261 13.6806C50.4781 13.4473 50.6041 13.1346 50.6041 12.7426C50.6041 12.3413 50.4781 12.0333 50.2261 11.8186C49.9741 11.5946 49.6054 11.4826 49.1201 11.4826H46.9221V14.0306H49.1201ZM49.2601 18.3286C49.7454 18.3286 50.1234 18.1979 50.3941 17.9366C50.6647 17.6659 50.8001 17.3253 50.8001 16.9146C50.8001 16.4946 50.6647 16.1539 50.3941 15.8926C50.1234 15.6219 49.7454 15.4866 49.2601 15.4866H46.9221V18.3286H49.2601Z" fill="#000013"/>
<path d="M54.7417 19.8126C54.6484 19.8126 54.5691 19.7799 54.5037 19.7146C54.4384 19.6493 54.4057 19.5699 54.4057 19.4766V12.8826C54.4057 12.7893 54.4384 12.7099 54.5037 12.6446C54.5691 12.5699 54.6484 12.5326 54.7417 12.5326H55.8757C55.9784 12.5326 56.0624 12.5653 56.1277 12.6306C56.1931 12.6959 56.2257 12.7799 56.2257 12.8826V13.4566C56.4497 13.1579 56.7297 12.9293 57.0657 12.7706C57.4111 12.6119 57.8031 12.5326 58.2417 12.5326H58.8157C58.9184 12.5326 58.9977 12.5653 59.0537 12.6306C59.1191 12.6866 59.1517 12.7659 59.1517 12.8686V13.8766C59.1517 13.9699 59.1191 14.0493 59.0537 14.1146C58.9977 14.1799 58.9184 14.2126 58.8157 14.2126H57.7237C57.2851 14.2126 56.9397 14.3386 56.6877 14.5906C56.4357 14.8426 56.3097 15.1879 56.3097 15.6266V19.4766C56.3097 19.5699 56.2771 19.6493 56.2117 19.7146C56.1464 19.7799 56.0624 19.8126 55.9597 19.8126H54.7417Z" fill="#000013"/>
<path d="M62.2482 19.9526C61.7722 19.9526 61.3336 19.8593 60.9322 19.6726C60.5402 19.4766 60.2276 19.2153 59.9942 18.8886C59.7702 18.5619 59.6582 18.2026 59.6582 17.8106C59.6582 17.1759 59.9149 16.6626 60.4282 16.2706C60.9416 15.8786 61.6462 15.6126 62.5422 15.4726L64.4603 15.1926V14.8986C64.4603 14.4879 64.3576 14.1799 64.1523 13.9746C63.9469 13.7693 63.6156 13.6666 63.1582 13.6666C62.8502 13.6666 62.5982 13.7273 62.4022 13.8486C62.2156 13.9606 62.0662 14.0726 61.9542 14.1846C61.8422 14.3059 61.7676 14.3853 61.7302 14.4226C61.6929 14.5346 61.6229 14.5906 61.5202 14.5906H60.4422C60.3582 14.5906 60.2836 14.5626 60.2182 14.5066C60.1622 14.4506 60.1342 14.3759 60.1342 14.2826C60.1436 14.0493 60.2556 13.7833 60.4702 13.4846C60.6942 13.1859 61.0349 12.9293 61.4922 12.7146C61.9496 12.4999 62.5096 12.3926 63.1722 12.3926C64.2736 12.3926 65.0762 12.6399 65.5802 13.1346C66.0842 13.6293 66.3362 14.2779 66.3362 15.0806V19.4766C66.3362 19.5699 66.3036 19.6493 66.2383 19.7146C66.1823 19.7799 66.1029 19.8126 66.0002 19.8126H64.8662C64.7729 19.8126 64.6936 19.7799 64.6283 19.7146C64.5629 19.6493 64.5302 19.5699 64.5302 19.4766V18.9306C64.3249 19.2293 64.0309 19.4766 63.6482 19.6726C63.2749 19.8593 62.8082 19.9526 62.2482 19.9526ZM62.7242 18.6226C63.2376 18.6226 63.6576 18.4546 63.9842 18.1186C64.3109 17.7826 64.4742 17.2926 64.4742 16.6486V16.3546L63.0742 16.5786C62.5329 16.6626 62.1222 16.7979 61.8422 16.9846C61.5716 17.1713 61.4362 17.3999 61.4362 17.6706C61.4362 17.9693 61.5622 18.2026 61.8142 18.3706C62.0662 18.5386 62.3696 18.6226 62.7242 18.6226Z" fill="#000013"/>
<path d="M68.4683 19.8126C68.375 19.8126 68.2956 19.7799 68.2303 19.7146C68.165 19.6493 68.1323 19.5699 68.1323 19.4766V12.8686C68.1323 12.7753 68.165 12.6959 68.2303 12.6306C68.2956 12.5653 68.375 12.5326 68.4683 12.5326H69.6163C69.7096 12.5326 69.789 12.5653 69.8543 12.6306C69.9196 12.6959 69.9523 12.7753 69.9523 12.8686V13.4426C70.503 12.7426 71.2823 12.3926 72.2903 12.3926C73.149 12.3926 73.8303 12.6773 74.3343 13.2466C74.8383 13.8066 75.0903 14.5719 75.0903 15.5426V19.4766C75.0903 19.5699 75.0576 19.6493 74.9923 19.7146C74.9363 19.7799 74.857 19.8126 74.7543 19.8126H73.5223C73.429 19.8126 73.3496 19.7799 73.2843 19.7146C73.219 19.6493 73.1863 19.5699 73.1863 19.4766V15.6266C73.1863 15.0759 73.051 14.6513 72.7803 14.3526C72.519 14.0446 72.1363 13.8906 71.6323 13.8906C71.1376 13.8906 70.7456 14.0446 70.4563 14.3526C70.1763 14.6606 70.0363 15.0853 70.0363 15.6266V19.4766C70.0363 19.5699 70.0036 19.6493 69.9383 19.7146C69.8823 19.7799 69.803 19.8126 69.7003 19.8126H68.4683Z" fill="#000013"/>
<path d="M79.5706 19.9526C78.628 19.9526 77.9046 19.6493 77.4006 19.0426C76.8966 18.4359 76.626 17.6286 76.5886 16.6206L76.5746 16.1586L76.5886 15.7106C76.6166 14.7306 76.8826 13.9326 77.3866 13.3166C77.9 12.7006 78.628 12.3926 79.5706 12.3926C80.476 12.3926 81.1946 12.7006 81.7266 13.3166V10.2086C81.7266 10.1059 81.7593 10.0266 81.8246 9.97059C81.8899 9.90526 81.9693 9.87259 82.0626 9.87259H83.2526C83.3553 9.87259 83.4346 9.90526 83.4906 9.97059C83.5559 10.0266 83.5886 10.1059 83.5886 10.2086V19.4766C83.5886 19.5699 83.5559 19.6493 83.4906 19.7146C83.4346 19.7799 83.3553 19.8126 83.2526 19.8126H82.1466C82.0533 19.8126 81.9739 19.7799 81.9086 19.7146C81.8433 19.6493 81.8106 19.5699 81.8106 19.4766V18.9586C81.2786 19.6213 80.532 19.9526 79.5706 19.9526ZM80.0886 18.4546C80.63 18.4546 81.0313 18.2819 81.2926 17.9366C81.554 17.5913 81.6986 17.1666 81.7266 16.6626C81.736 16.5506 81.7406 16.3686 81.7406 16.1166C81.7406 15.8739 81.736 15.6966 81.7266 15.5846C81.708 15.1179 81.5586 14.7213 81.2786 14.3946C81.008 14.0586 80.6113 13.8906 80.0886 13.8906C79.0806 13.8906 78.544 14.5113 78.4786 15.7526L78.4646 16.1726L78.4786 16.5926C78.544 17.8339 79.0806 18.4546 80.0886 18.4546Z" fill="#000013"/>
<path d="M89.1578 19.8126C89.0644 19.8126 88.9851 19.7799 88.9198 19.7146C88.8545 19.6493 88.8218 19.5699 88.8218 19.4766V10.3486C88.8218 10.2459 88.8545 10.1666 88.9198 10.1106C88.9851 10.0453 89.0644 10.0126 89.1578 10.0126H90.4598C90.5624 10.0126 90.6418 10.0453 90.6978 10.1106C90.7631 10.1666 90.7958 10.2459 90.7958 10.3486V18.1466H95.2338C95.3364 18.1466 95.4204 18.1793 95.4858 18.2446C95.5511 18.3099 95.5838 18.3939 95.5838 18.4966V19.4766C95.5838 19.5793 95.5511 19.6633 95.4858 19.7286C95.4204 19.7846 95.3364 19.8126 95.2338 19.8126H89.1578Z" fill="#000013"/>
<path d="M99.8855 19.9526C98.7935 19.9526 97.9488 19.6726 97.3515 19.1126C96.7542 18.5433 96.4322 17.7686 96.3855 16.7886L96.3715 16.1726L96.3855 15.5566C96.4322 14.5859 96.7588 13.8159 97.3655 13.2466C97.9722 12.6773 98.8122 12.3926 99.8855 12.3926C100.959 12.3926 101.799 12.6773 102.406 13.2466C103.012 13.8159 103.339 14.5859 103.385 15.5566C103.395 15.6686 103.399 15.8739 103.399 16.1726C103.399 16.4713 103.395 16.6766 103.385 16.7886C103.339 17.7686 103.017 18.5433 102.419 19.1126C101.822 19.6726 100.977 19.9526 99.8855 19.9526ZM99.8855 18.5666C100.38 18.5666 100.763 18.4126 101.033 18.1046C101.304 17.7873 101.453 17.3253 101.481 16.7186C101.491 16.6253 101.495 16.4433 101.495 16.1726C101.495 15.9019 101.491 15.7199 101.481 15.6266C101.453 15.0199 101.304 14.5626 101.033 14.2546C100.763 13.9373 100.38 13.7786 99.8855 13.7786C99.3908 13.7786 99.0082 13.9373 98.7375 14.2546C98.4668 14.5626 98.3175 15.0199 98.2895 15.6266L98.2755 16.1726L98.2895 16.7186C98.3175 17.3253 98.4668 17.7873 98.7375 18.1046C99.0082 18.4126 99.3908 18.5666 99.8855 18.5666Z" fill="#000013"/>
<path d="M108.241 22.8926C107.41 22.8926 106.738 22.7526 106.225 22.4726C105.711 22.2019 105.347 21.8893 105.133 21.5346C104.918 21.1799 104.811 20.8766 104.811 20.6246C104.811 20.5406 104.843 20.4659 104.909 20.4006C104.983 20.3353 105.063 20.3026 105.147 20.3026H106.365C106.449 20.3026 106.519 20.3213 106.575 20.3586C106.64 20.4053 106.691 20.4846 106.729 20.5966C106.822 20.8486 106.971 21.0586 107.177 21.2266C107.391 21.4039 107.723 21.4926 108.171 21.4926C108.731 21.4926 109.141 21.3666 109.403 21.1146C109.673 20.8626 109.809 20.4286 109.809 19.8126V18.8606C109.295 19.4673 108.577 19.7706 107.653 19.7706C106.682 19.7706 105.949 19.4719 105.455 18.8746C104.969 18.2773 104.708 17.4746 104.671 16.4666L104.657 16.0886L104.671 15.7106C104.708 14.7213 104.974 13.9233 105.469 13.3166C105.963 12.7006 106.691 12.3926 107.653 12.3926C108.147 12.3926 108.581 12.4859 108.955 12.6726C109.328 12.8593 109.641 13.1159 109.893 13.4426V12.8826C109.893 12.7799 109.925 12.6959 109.991 12.6306C110.056 12.5653 110.135 12.5326 110.229 12.5326H111.363C111.456 12.5326 111.535 12.5699 111.601 12.6446C111.666 12.7099 111.699 12.7893 111.699 12.8826L111.713 19.6306C111.713 20.6666 111.423 21.4693 110.845 22.0386C110.266 22.6079 109.398 22.8926 108.241 22.8926ZM108.171 18.2866C108.703 18.2866 109.099 18.1186 109.361 17.7826C109.631 17.4466 109.781 17.0359 109.809 16.5506C109.818 16.4759 109.823 16.3219 109.823 16.0886C109.823 15.8646 109.818 15.7153 109.809 15.6406C109.781 15.1459 109.631 14.7306 109.361 14.3946C109.099 14.0586 108.703 13.8906 108.171 13.8906C107.163 13.8906 106.631 14.5113 106.575 15.7526L106.561 16.0886C106.561 16.7513 106.677 17.2833 106.911 17.6846C107.153 18.0859 107.573 18.2866 108.171 18.2866Z" fill="#000013"/>
<path d="M116.798 19.9526C115.706 19.9526 114.861 19.6726 114.264 19.1126C113.666 18.5433 113.344 17.7686 113.298 16.7886L113.284 16.1726L113.298 15.5566C113.344 14.5859 113.671 13.8159 114.278 13.2466C114.884 12.6773 115.724 12.3926 116.798 12.3926C117.871 12.3926 118.711 12.6773 119.318 13.2466C119.924 13.8159 120.251 14.5859 120.298 15.5566C120.307 15.6686 120.312 15.8739 120.312 16.1726C120.312 16.4713 120.307 16.6766 120.298 16.7886C120.251 17.7686 119.929 18.5433 119.332 19.1126C118.734 19.6726 117.89 19.9526 116.798 19.9526ZM116.798 18.5666C117.292 18.5666 117.675 18.4126 117.946 18.1046C118.216 17.7873 118.366 17.3253 118.394 16.7186C118.403 16.6253 118.408 16.4433 118.408 16.1726C118.408 15.9019 118.403 15.7199 118.394 15.6266C118.366 15.0199 118.216 14.5626 117.946 14.2546C117.675 13.9373 117.292 13.7786 116.798 13.7786C116.303 13.7786 115.92 13.9373 115.65 14.2546C115.379 14.5626 115.23 15.0199 115.202 15.6266L115.188 16.1726L115.202 16.7186C115.23 17.3253 115.379 17.7873 115.65 18.1046C115.92 18.4126 116.303 18.5666 116.798 18.5666Z" fill="#000013"/>
</svg>
