<!--
 * SVG Icon Sprite
 * 
 * Help (with example) from: https://github.com/parcel-bundler/parcel/issues/2246
 * SVG `symbol` a Good Choice for Icons by Chris Coyier: https://css-tricks.com/svg-symbol-good-choice-icons
 * Creating an SVG Icon System with React by Sarah Drasner: https://css-tricks.com/creating-svg-icon-system-react
 * SVG Icon Source: https://materialdesignicons.com
 * SVG customization using Figma: https://figma.com
 * SVG's have been optimizated using the SVGO web app SVGOMG: https://jakearchibald.github.io/svgomg
-->
<!--
// @todo:
// Add default styling using scss!!
// Add most used material design icons to sprite
// Add Titles?
-->

<svg xmlns="http://www.w3.org/2000/svg">

  <symbol id="open-in-new">
    <path d="M14.667 0v2.667h4.786L6.347 15.773l1.88 1.88L21.333 4.547v4.786H24V0h-9.333zm6.666 21.333H2.667V2.667H12V0H2.667C1.187 0 0 1.2 0 2.667v18.666A2.667 2.667 0 002.667 24h18.666A2.667 2.667 0 0024 21.333V12h-2.667v9.333z" />
  </symbol>

  <symbol id="mail">
    <path d="M21.6 7.2l-9.6 6-9.6-6V4.8l9.6 6 9.6-6v2.4zm0-4.8H2.4A2.392 2.392 0 000 4.8v14.4a2.4 2.4 0 002.4 2.4h19.2a2.4 2.4 0 002.4-2.4V4.8a2.4 2.4 0 00-2.4-2.4z" />
  </symbol>

  <symbol id="map-marker">
    <path d="M12 11.4a3 3 0 110-6 3 3 0 010 6zM12 0a8.4 8.4 0 00-8.4 8.4C3.6 14.7 12 24 12 24s8.4-9.3 8.4-15.6A8.4 8.4 0 0012 0z" />
  </symbol>

  <symbol id="home">
    <path d="M12 0l10.667 8v16H16v-9.333H8V24H1.333V8L12 0z" />
  </symbol>

  <symbol id="close">
    <path d="M24 2.417L21.583 0 12 9.583 2.417 0 0 2.417 9.583 12 0 21.583 2.417 24 12 14.417 21.583 24 24 21.583 14.417 12 24 2.417z" />
  </symbol>

  <symbol id="a11y">
    <path d="M22.8 8.4h-7.2V24h-2.4v-7.2h-2.4V24H8.4V8.4H1.2V6h21.6v2.4zM12 0a2.4 2.4 0 11-2.4 2.4C9.6 1.068 10.668 0 12 0z" />
  </symbol>

  <symbol id="cookie">
    <path d="M12 0a12 12 0 1012 12c0-.667-.053-1.333-.173-2-.36-.667-1.16-.667-1.16-.667H20V8c0-1.333-1.333-1.333-1.333-1.333H16V5.333C16 4 14.667 4 14.667 4h-1.334V1.333C13.333 0 12 0 12 0zM8.667 4a2 2 0 110 4 2 2 0 010-4zm-4 5.333a2 2 0 110 4 2 2 0 010-4zm6.666 1.334a2 2 0 110 3.999 2 2 0 010-4zM18 13.333a2 2 0 110 4 2 2 0 010-4zm-7.333 4a2 2 0 110 4 2 2 0 010-4z" />
  </symbol>

  <symbol id="privacy-lock">
    <path d="M12 18.286a2.286 2.286 0 100-4.572 2.286 2.286 0 000 4.572zM18.857 8a2.286 2.286 0 012.286 2.286v11.428A2.285 2.285 0 0118.857 24H5.143a2.286 2.286 0 01-2.286-2.286V10.286A2.285 2.285 0 015.143 8h1.143V5.714a5.714 5.714 0 1111.428 0V8h1.143zM12 2.286a3.429 3.429 0 00-3.429 3.428V8h6.858V5.714A3.428 3.428 0 0012 2.286z" />
  </symbol>

  <symbol id="burger-menu">
    <path d="M0 4h24v2.667H0V4zm0 6.667h24v2.666H0v-2.666zm0 6.666h24V20H0v-2.667z" />
  </symbol>

  <symbol id="message">
    <path d="M21.6 21.6H6a2.4 2.4 0 01-2.4-2.4V8.328L.276 4.368A1.2 1.2 0 011.2 2.4h20.4A2.4 2.4 0 0124 4.8v14.4a2.4 2.4 0 01-2.4 2.4zM7.8 6a.6.6 0 00-.6.6v1.2a.6.6 0 00.6.6h12a.6.6 0 00.6-.6V6.6a.6.6 0 00-.6-.6h-12zm0 4.8a.6.6 0 00-.6.6v1.2a.6.6 0 00.6.6h12a.6.6 0 00.6-.6v-1.2a.6.6 0 00-.6-.6h-12zm0 4.8a.6.6 0 00-.6.6v1.2a.6.6 0 00.6.6h6a.6.6 0 00.6-.6v-1.2a.6.6 0 00-.6-.6h-6z" />
  </symbol>

</svg>