<!--
 * SVG Icon Sprite
 * 
 * SVG `symbol` a Good Choice for Icons by Chris Coyier: https://css-tricks.com/svg-symbol-good-choice-icons
 * Creating an SVG Icon System with React by Sarah Drasner: https://css-tricks.com/creating-svg-icon-system-react
 * SVG's have been optimizated using the SVGO web app SVGOMG: https://jakearchibald.github.io/svgomg
 * SVG Icons from Material Design Icons: https://materialdesignicons.com
-->

<svg xmlns="http://www.w3.org/2000/svg">

  <symbol id="instagram">
    <path fill-rule="evenodd" clip-rule="evenodd" d="M8.515 2.583c1.01-.046 1.333-.057 3.906-.057 2.574 0 2.896.012 3.905.057 1.01.046 1.698.207 2.301.44a4.661 4.661 0 011.678 1.094 4.627 4.627 0 011.092 1.677c.234.603.394 1.292.44 2.3.047 1.011.058 1.333.058 3.906 0 2.573-.011 2.896-.057 3.906-.046 1.007-.207 1.696-.441 2.3a4.648 4.648 0 01-1.092 1.678 4.645 4.645 0 01-1.678 1.092c-.603.234-1.292.394-2.3.44-1.01.047-1.333.058-3.906.058-2.573 0-2.895-.012-3.906-.057-1.007-.046-1.696-.207-2.3-.441a4.649 4.649 0 01-1.678-1.092 4.643 4.643 0 01-1.093-1.678c-.233-.603-.393-1.292-.44-2.3-.046-1.011-.057-1.334-.057-3.906 0-2.573.012-2.896.057-3.905.046-1.01.207-1.698.44-2.301a4.647 4.647 0 011.094-1.678 4.644 4.644 0 011.677-1.093c.603-.233 1.292-.393 2.3-.44zm7.734 1.705c-.999-.045-1.298-.055-3.828-.055s-2.83.01-3.828.055c-.924.043-1.426.197-1.76.327a2.942 2.942 0 00-1.09.708 2.939 2.939 0 00-.707 1.09c-.13.333-.284.835-.327 1.759-.045.999-.055 1.299-.055 3.828 0 2.53.01 2.83.055 3.828.043.924.197 1.426.327 1.76.151.41.393.784.708 1.09a2.94 2.94 0 001.09.707c.333.13.835.284 1.759.327.999.045 1.298.055 3.828.055s2.83-.01 3.828-.055c.924-.043 1.426-.197 1.76-.327a2.943 2.943 0 001.09-.708 2.94 2.94 0 00.707-1.09c.13-.333.284-.835.327-1.759.045-.999.055-1.298.055-3.828s-.01-2.83-.055-3.828c-.043-.924-.197-1.426-.327-1.76a2.94 2.94 0 00-.708-1.09 2.94 2.94 0 00-1.09-.707c-.333-.13-.835-.284-1.759-.327zm-5.038 10.633a3.16 3.16 0 10.9-6.066 3.16 3.16 0 00-.9 6.066zM8.978 8.556a4.87 4.87 0 116.886 6.886 4.87 4.87 0 01-6.886-6.886zm9.393-.701a1.15 1.15 0 00-1.254-1.892 1.151 1.151 0 101.253 1.892z" />
  </symbol>

  <symbol id="linkedin">
    <path fill-rule="evenodd" clip-rule="evenodd" d="M2.52637 4.10929C2.52637 3.68946 2.69314 3.28683 2.99001 2.98996C3.28687 2.6931 3.6895 2.52632 4.10933 2.52632H19.889C20.0971 2.52598 20.3032 2.56668 20.4955 2.64609C20.6878 2.7255 20.8625 2.84206 21.0097 2.9891C21.1569 3.13614 21.2737 3.31076 21.3533 3.50298C21.4329 3.6952 21.4738 3.90124 21.4737 4.10929V19.889C21.474 20.0971 21.4332 20.3032 21.3536 20.4955C21.2741 20.6878 21.1575 20.8626 21.0104 21.0097C20.8633 21.1569 20.6886 21.2737 20.4963 21.3533C20.3041 21.4329 20.098 21.4738 19.8899 21.4737H4.10933C3.90138 21.4737 3.69547 21.4327 3.50336 21.3531C3.31125 21.2735 3.13671 21.1568 2.9897 21.0097C2.8427 20.8627 2.72612 20.6881 2.64662 20.4959C2.56712 20.3037 2.52625 20.0978 2.52637 19.8899V4.10929ZM10.0261 9.75044H12.5917V11.0389C12.9621 10.2982 13.9094 9.63159 15.3331 9.63159C18.0623 9.63159 18.7091 11.1069 18.7091 13.8138V18.8279H15.9471V14.4304C15.9471 12.8888 15.5768 12.019 14.6363 12.019C13.3315 12.019 12.7889 12.9569 12.7889 14.4304V18.8279H10.0261V9.75044ZM5.28924 18.71H8.05211V9.63159H5.28924V18.7091V18.71ZM8.44742 6.67063C8.45263 6.90719 8.41053 7.14241 8.32361 7.36248C8.23668 7.58255 8.10667 7.78304 7.94121 7.95219C7.77574 8.12133 7.57816 8.25573 7.36006 8.34748C7.14196 8.43923 6.90772 8.48649 6.6711 8.48649C6.43449 8.48649 6.20025 8.43923 5.98215 8.34748C5.76404 8.25573 5.56646 8.12133 5.401 7.95219C5.23554 7.78304 5.10553 7.58255 5.0186 7.36248C4.93167 7.14241 4.88958 6.90719 4.89479 6.67063C4.90501 6.20629 5.09665 5.76442 5.42866 5.43964C5.76067 5.11486 6.20666 4.933 6.6711 4.933C7.13555 4.933 7.58154 5.11486 7.91355 5.43964C8.24556 5.76442 8.43719 6.20629 8.44742 6.67063Z" />
  </symbol>

  <symbol id="mail">
    <path d="M12 13L2 6.76V6C2 4.89 2.89 4 4 4H20C20.5304 4 21.0391 4.21071 21.4142 4.58579C21.7893 4.96086 22 5.46957 22 6V6.75L12 13ZM22 18C22 18.5304 21.7893 19.0391 21.4142 19.4142C21.0391 19.7893 20.5304 20 20 20H4C3.46957 20 2.96086 19.7893 2.58579 19.4142C2.21071 19.0391 2 18.5304 2 18V9.11L4 10.36V18H20V10.36L22 9.11V18Z" />
  </symbol>

  <symbol id="twitter">
    <path d="M22.8538 5.26973C22.0555 5.62347 21.1979 5.86247 20.2964 5.97051C21.2266 5.41389 21.9226 4.53785 22.2544 3.50584C21.3804 4.02496 20.4239 4.39036 19.4264 4.58616C18.7556 3.86996 17.8672 3.39525 16.899 3.23573C15.9307 3.07622 14.9369 3.24082 14.0719 3.70398C13.2068 4.16715 12.5188 4.90296 12.1148 5.79718C11.7107 6.6914 11.6132 7.69401 11.8374 8.64933C10.0665 8.56041 8.33409 8.10013 6.75261 7.29835C5.17113 6.49658 3.77591 5.37123 2.65749 3.99533C2.27508 4.655 2.05519 5.41983 2.05519 6.23437C2.05476 6.96765 2.23534 7.6897 2.58089 8.33645C2.92645 8.9832 3.4263 9.53465 4.0361 9.94189C3.3289 9.91939 2.63729 9.7283 2.01886 9.38452V9.44188C2.01879 10.4703 2.37454 11.4671 3.02574 12.2631C3.67695 13.0592 4.5835 13.6054 5.59157 13.8091C4.93553 13.9866 4.24771 14.0128 3.58007 13.8855C3.86449 14.7705 4.41851 15.5443 5.16458 16.0987C5.91064 16.6531 6.8114 16.9603 7.74075 16.9774C6.16313 18.2158 4.21477 18.8876 2.20911 18.8847C1.85383 18.8848 1.49885 18.864 1.146 18.8225C3.18186 20.1315 5.55175 20.8262 7.97211 20.8235C16.1654 20.8235 20.6444 14.0376 20.6444 8.15219C20.6444 7.96098 20.6396 7.76786 20.631 7.57665C21.5022 6.9466 22.2543 6.1664 22.8519 5.2726L22.8538 5.26973Z" />
  </symbol>

  <symbol id="github">
    <path fill-rule="evenodd" clip-rule="evenodd" d="M12 2.25003C6.475 2.25003 2 6.83822 2 12.503C2 17.0399 4.8625 20.8719 8.8375 22.2304C9.3375 22.3202 9.525 22.0126 9.525 21.7434C9.525 21.4999 9.5125 20.6925 9.5125 19.8338C7 20.308 6.35 19.2058 6.15 18.6291C6.0375 18.3343 5.55 17.4244 5.125 17.1809C4.775 16.9886 4.275 16.5144 5.1125 16.5016C5.9 16.4888 6.4625 17.245 6.65 17.5525C7.55 19.1033 8.9875 18.6676 9.5625 18.3984C9.65 17.732 9.9125 17.2834 10.2 17.0271C7.975 16.7708 5.65 15.8864 5.65 11.9647C5.65 10.8497 6.0375 9.92692 6.675 9.20921C6.575 8.95289 6.225 7.90196 6.775 6.49218C6.775 6.49218 7.6125 6.22304 9.525 7.54311C10.325 7.31242 11.175 7.19707 12.025 7.19707C12.875 7.19707 13.725 7.31242 14.525 7.54311C16.4375 6.21023 17.275 6.49218 17.275 6.49218C17.825 7.90196 17.475 8.95289 17.375 9.20921C18.0125 9.92692 18.4 10.8369 18.4 11.9647C18.4 15.8993 16.0625 16.7708 13.8375 17.0271C14.2 17.3475 14.5125 17.9627 14.5125 18.9239C14.5125 20.2952 14.5 21.3974 14.5 21.7434C14.5 22.0126 14.6875 22.333 15.1875 22.2304C17.1726 21.5433 18.8976 20.2351 20.1197 18.4901C21.3418 16.7452 21.9994 14.6512 22 12.503C22 6.83822 17.525 2.25003 12 2.25003Z" />
  </symbol>

  <symbol id="dark-mode">
    <path d="M12,18V6A6,6 0 0,1 18,12A6,6 0 0,1 12,18M20,15.31L23.31,12L20,8.69V4H15.31L12,0.69L8.69,4H4V8.69L0.69,12L4,15.31V20H8.69L12,23.31L15.31,20H20V15.31Z" />
  </symbol>

</svg>